# xmcd
#
# Track frame offsets:
#	150
#	17325
#	34512
#	51090
#	66545
#	82842
#	96027
#	114492
#	131680
#	143287
#
# Disc length: 2169 seconds
#
# Revision: 1
# Processed by: cddbd v1.5.2PL0 Copyright (c) Steve Scherf et al.
# Submitted via: audiograbber 1.83.01
#
DISCID=7408770a
DTITLE=Various Artist - Forever Soul 2 (Sony Music SPECIAL EDITIONS)
DYEAR=1997
DGENRE=Soul
TTITLE0=Marvin Gaye - My Love is Waiting
TTITLE1=Bill Withers - Lovely Day
TTITLE2=The Emotions - Best of My Love
TTITLE3=Harold Melvin and the Blue Notes - If You Don't Know Me by Now
TTITLE4=Earth, Wind and Fire - September
TTITLE5=The Manhattans - Hurt
TTITLE6=The O'Jays - Put Your Hands Together
TTITLE7=Mtume - Juicy Fruit
TTITLE8=Erma Franklin - Piece of My Heart
TTITLE9=Isley Jasper Isley - Caravan of Love
EXTD=IDK 85167
EXTT0=
EXTT1=
EXTT2=
EXTT3=
EXTT4=
EXTT5=
EXTT6=
EXTT7=
EXTT8=
EXTT9=
PLAYORDER=
